<?xml version="1.0" encoding="UTF-8"?>
<svg version="1.1" xmlns="http://www.w3.org/2000/svg" width="512" height="512">
<path d="M0 0 C10.89 0 21.78 0 33 0 C33.33 5.28 33.66 10.56 34 16 C96.04 16 158.08 16 222 16 C222.33 10.72 222.66 5.44 223 0 C233.89 0 244.78 0 256 0 C256 18.70952995 256 18.70952995 254.4375 25.8125 C254.26114014 26.64233398 254.08478027 27.47216797 253.90307617 28.32714844 C246.475369 61.24928579 226.35420565 90.80833223 197.84838867 109.05810547 C182.00660456 119 182.00660456 119 177 119 C177 119.66 177 120.32 177 121 C177.680625 121.09410156 178.36125 121.18820313 179.0625 121.28515625 C182.67048042 122.16316212 185.75128293 123.69232835 189 125.4375 C189.65572998 125.78949463 190.31145996 126.14148926 190.98706055 126.50415039 C221.4830302 143.38670154 242.82972425 172.74718015 252.39794922 205.87402344 C252.59662598 206.5755957 252.79530273 207.27716797 253 208 C253.34160156 209.17820313 253.68320312 210.35640625 254.03515625 211.5703125 C261.59289425 243.55887799 255.11281152 279.42914651 238.3125 307.35546875 C224.65890786 329.2275612 204.2565492 349.23984962 180 359 C179.01 359 178.02 359 177 359 C177 359.66 177 360.32 177 361 C177.680625 361.09410156 178.36125 361.18820312 179.0625 361.28515625 C182.67048042 362.16316212 185.75128293 363.69232835 189 365.4375 C189.65572998 365.78949463 190.31145996 366.14148926 190.98706055 366.50415039 C221.45349308 383.37034981 242.80706651 412.71336956 252.39794922 445.80371094 C255.55462074 457.31928963 256 467.79307336 256 480 C245.11 480 234.22 480 223 480 C222.67 474.72 222.34 469.44 222 464 C159.96 464 97.92 464 34 464 C33.67 469.28 33.34 474.56 33 480 C22.11 480 11.22 480 0 480 C0 461.33518245 0 461.33518245 1.5625 454.25 C1.73233398 453.4343457 1.90216797 452.61869141 2.07714844 451.77832031 C4.1909237 442.24268357 7.54649966 433.11879302 11 424 C10.5359375 424.680625 10.071875 425.36125 9.59375 426.0625 C-10.81211842 454.69162882 -40.58241722 473.30438345 -75.18359375 479.46875 C-109.81350026 484.2892897 -144.38813213 476.38440927 -172.8515625 455.953125 C-200.81897006 434.00819753 -219.58082832 403.51484315 -224 368 C-227.94723003 334.20575874 -218.96345321 299.37588586 -197.875 272.5 C-188.05587004 261.03864622 -177.73945744 251.10692746 -165 243 C-156.15929385 237.1959907 -148.55639156 231.75891412 -146 221 C-144.70826542 213.08459885 -144.77415426 205.12409816 -144.68359375 197.125 C-144.66299047 195.5894316 -144.64199319 194.05386844 -144.62062073 192.51831055 C-144.56574815 188.50055213 -144.51618718 184.48274553 -144.46777344 180.46490479 C-144.41730219 176.35546645 -144.36175065 172.24609703 -144.30664062 168.13671875 C-144.19948569 160.09120432 -144.09794824 152.04563176 -144 144 C-145.10988281 144.01224609 -146.21976562 144.02449219 -147.36328125 144.03710938 C-153.07498428 143.97882669 -156.84755084 142.02161402 -160.9921875 138.12890625 C-167.32168411 131.18221806 -168.48068378 125.81222585 -168.3046875 116.4453125 C-167.60939797 108.58319245 -163.95245981 104.45041296 -158.09765625 99.4453125 C-152.42609095 95.53753008 -147.13145809 95.70341545 -140.46166992 95.70947266 C-139.40089737 95.70275543 -138.34012482 95.69603821 -137.24720764 95.68911743 C-133.74158031 95.67012481 -130.23614433 95.6662125 -126.73046875 95.6640625 C-124.29055198 95.65763523 -121.85063598 95.65090692 -119.41072083 95.64389038 C-114.29552423 95.63191428 -109.18039518 95.62820989 -104.06518555 95.62939453 C-97.51816043 95.62959768 -90.97156957 95.60230045 -84.42464733 95.56785011 C-79.38452677 95.54558642 -74.34451078 95.54155685 -69.30434608 95.54261398 C-66.89107073 95.54025705 -64.47779253 95.53142837 -62.06456566 95.51594925 C-58.68490787 95.4963019 -55.30618732 95.50212336 -51.92651367 95.51416016 C-50.93454987 95.50292114 -49.94258606 95.49168213 -48.92056274 95.48010254 C-41.63542794 95.54586489 -36.28788653 97.11880327 -30.7578125 101.96484375 C-30.21898437 102.61582031 -29.68015625 103.26679687 -29.125 103.9375 C-28.29355469 104.91009766 -28.29355469 104.91009766 -27.4453125 105.90234375 C-22.96587903 112.40357557 -23.32536272 119.37140917 -24 127 C-25.70561503 133.75768995 -30.5036987 138.0157334 -36 142 C-40.04995548 144.27192625 -43.41470125 144.04815366 -48 144 C-47.91521763 152.80665003 -47.82019145 161.61311512 -47.71247292 170.41951466 C-47.66275599 174.50970452 -47.61642613 178.59987159 -47.578125 182.69018555 C-47.54095842 186.645514 -47.49451852 190.60063938 -47.44193649 194.55579185 C-47.42355764 196.0566415 -47.40839041 197.5575344 -47.39665604 199.0584507 C-47.54449336 217.86721895 -47.54449336 217.86721895 -39.125 234.0234375 C-34.39031423 238.43684102 -29.24031091 241.84496409 -23.75 245.23828125 C-14.36876459 251.24813518 -6.7113238 259.05018165 1 267 C0.93143799 266.38503662 0.86287598 265.77007324 0.79223633 265.13647461 C-3.14734537 226.54127091 2.50495335 189.29042235 27.5625 158.4375 C29.67028495 155.92334383 31.81947637 153.45119438 34 151 C34.75925781 150.13890625 35.51851563 149.2778125 36.30078125 148.390625 C44.95351596 139.20014971 55.7064624 132.08603076 66.625 125.875 C67.61898804 125.30749023 67.61898804 125.30749023 68.63305664 124.72851562 C72.05793603 122.84388877 75.10695552 121.49222401 79 121 C79 120.34 79 119.68 79 119 C78.33097656 118.9175 77.66195313 118.835 76.97265625 118.75 C73.10538771 117.77428967 69.87134867 115.96595016 66.4375 114 C65.73222168 113.59845703 65.02694336 113.19691406 64.30029297 112.78320312 C33.40384394 94.84016908 12.37960621 66.21692517 3 32 C0.20951335 21.24421587 0 11.31664078 0 0 Z M38 32 C42.02051282 43.03589744 42.02051282 43.03589744 46 48 C49.01977388 48.6170938 49.01977388 48.6170938 52.55319214 48.53485107 C53.55629919 48.54844441 53.55629919 48.54844441 54.57967103 48.56231236 C56.82536591 48.58767727 59.07009551 48.58435535 61.31591797 48.58105469 C62.92400362 48.59302065 64.53207776 48.60663069 66.14013672 48.62176514 C70.51211741 48.65714816 74.88378512 48.66647846 79.25589514 48.66902828 C82.90407 48.67282368 86.55217171 48.68753575 90.20031846 48.70171666 C98.80692308 48.73430389 107.41336031 48.74405285 116.02001953 48.74121094 C124.90165065 48.73880763 133.78231005 48.78101386 142.66369522 48.84418559 C150.28589802 48.89647117 157.90778309 48.91794727 165.53016388 48.9153893 C170.08409451 48.91436876 174.63716195 48.925802 179.19091415 48.9681015 C183.47432109 49.00680233 187.75603886 49.00716503 192.039505 48.97803497 C193.61128834 48.97384804 195.18317646 48.98332605 196.75477982 49.00747681 C204.8314859 49.43720759 204.8314859 49.43720759 211.96127701 46.43527985 C213.38364091 44.29202006 214.17959111 42.44126128 215 40 C215.99 37.36 216.98 34.72 218 32 C158.6 32 99.2 32 38 32 Z M59 64 C66.45067989 72.69245987 74.14642727 78.82257565 84.328125 83.8359375 C85.01701813 84.17679886 85.70591125 84.51766022 86.41567993 84.86885071 C93.54168718 88.34229101 100.80162844 91.43814464 108.18408203 94.32250977 C109.66077491 94.90551878 111.13213036 95.50220881 112.59814453 96.11157227 C122.10251968 100.41174745 122.10251968 100.41174745 132.1796875 100.19140625 C133.80242959 99.4971403 135.40847575 98.76311707 137 98 C139.19947372 97.17252067 141.40293337 96.35559129 143.609375 95.546875 C173.13883698 84.27485338 173.13883698 84.27485338 197 64 C151.46 64 105.92 64 59 64 Z M119.12890625 141.71875 C117.99073708 142.16208679 117.99073708 142.16208679 116.82957458 142.61437988 C115.22099236 143.24401907 113.61483401 143.87988101 112.01098633 144.52148438 C109.60721312 145.4821308 107.19627673 146.42237443 104.78320312 147.359375 C91.57929519 152.53447756 78.09319636 157.95163247 67 167 C67 167.33 67 167.66 67 168 C107.26 168 147.52 168 189 168 C179.06342806 158.06342806 165.83915244 152.90492608 152.90771484 147.96728516 C150.33773662 146.98576851 147.77597976 145.98480723 145.21484375 144.98046875 C143.56813952 144.34003603 141.9210192 143.70067192 140.2734375 143.0625 C139.51509613 142.76778809 138.75675476 142.47307617 137.97543335 142.16943359 C130.64095226 139.37585933 126.63991634 138.68983217 119.12890625 141.71875 Z M42 198 C42 198.66 42 199.32 42 200 C98.76 200 155.52 200 214 200 C210.62102111 191.30999127 210.62102111 191.30999127 205 184 C200.12355127 182.35715593 195.30270423 182.46132024 190.21142578 182.52905273 C188.70770774 182.50921516 187.20404469 182.48475428 185.70046997 182.45603943 C181.62928811 182.39323128 177.5610392 182.40013498 173.4895463 182.42362475 C170.08493956 182.43696492 166.68088249 182.41623515 163.27633846 182.39564186 C155.24054403 182.3476354 147.20618406 182.35624958 139.17041016 182.40112305 C130.89432423 182.44643493 122.62232709 182.40073182 114.34671414 182.30928081 C107.22856678 182.23360602 100.11169193 182.21257278 92.9931792 182.23538738 C88.74710462 182.24858716 84.50353324 182.24195412 80.2577858 182.18356133 C76.2617075 182.13116211 72.27152715 182.14745007 68.27573776 182.21526527 C66.81533449 182.22890917 65.35447958 182.21902622 63.89445496 182.18308258 C51.12456413 181.89348179 46.92289523 187.07262746 42 198 Z M36 216 C33.39756764 221.8153852 33.39756764 221.8153852 33 232 C95.7 232 158.4 232 223 232 C222.60243236 221.8153852 222.60243236 221.8153852 220 216 C159.28 216 98.56 216 36 216 Z M33 248 C33.39756764 258.1846148 33.39756764 258.1846148 36 264 C96.72 264 157.44 264 220 264 C222.60243236 258.1846148 222.60243236 258.1846148 223 248 C160.3 248 97.6 248 33 248 Z M42 280 C45.37897889 288.69000873 45.37897889 288.69000873 51 296 C55.87644873 297.64284407 60.69729577 297.53867976 65.78857422 297.47094727 C67.29229226 297.49078484 68.79595531 297.51524572 70.29953003 297.54396057 C74.37071189 297.60676872 78.4389608 297.59986502 82.5104537 297.57637525 C85.91506044 297.56303508 89.31911751 297.58376485 92.72366154 297.60435814 C100.75945597 297.6523646 108.79381594 297.64375042 116.82958984 297.59887695 C125.10567577 297.55356507 133.37767291 297.59926818 141.65328586 297.69071919 C148.77143322 297.76639398 155.88830807 297.78742722 163.0068208 297.76461262 C167.25289538 297.75141284 171.49646676 297.75804588 175.7422142 297.81643867 C179.7382925 297.86883789 183.72847285 297.85254993 187.72426224 297.78473473 C189.18466551 297.77109083 190.64552042 297.78097378 192.10554504 297.81691742 C199.88924862 298.10470841 199.88924862 298.10470841 206.5112977 294.57461429 C209.6520065 290.71976473 214 285.09938033 214 280 C157.24 280 100.48 280 42 280 Z M67 312 C77.14849743 322.14849743 90.9273353 327.524948 104.09936523 332.6796875 C106.83959699 333.76068957 109.55831455 334.88718108 112.27929688 336.015625 C114.04575179 336.71637968 115.813295 337.41439861 117.58203125 338.109375 C118.38018753 338.44660583 119.17834381 338.78383667 120.00068665 339.13128662 C126.4737091 341.57653145 130.68977789 340.5213002 137 338 C138.14952148 337.59104492 139.29904297 337.18208984 140.48339844 336.76074219 C143.90844017 335.43074317 147.33238386 334.09899842 150.75 332.75 C151.67809479 332.38400696 151.67809479 332.38400696 152.62493896 332.01062012 C165.44458061 326.94083658 178.20420353 321.8057879 189 313 C189 312.67 189 312.34 189 312 C148.74 312 108.48 312 67 312 Z M30 324 C30.06856201 324.68642578 30.13712402 325.37285156 30.20776367 326.08007812 C32.61086101 352.08602323 32.00355812 376.6490863 22.19897461 401.08911133 C21.41746596 403.04067174 20.70221402 405.01852599 20 407 C20.33 407.66 20.66 408.32 21 409 C21.52207031 408.27296875 22.04414063 407.5459375 22.58203125 406.796875 C37.22194716 386.79839092 55.31696331 369.70562218 79 361 C79 360.34 79 359.68 79 359 C77.98421875 358.5153125 76.9684375 358.030625 75.921875 357.53125 C59.76480999 349.71191648 45.44257668 340.05118098 33 327 C32.00138111 325.9986208 31.00155938 324.99843818 30 324 Z M119.421875 381.81640625 C118.27733856 382.25762062 118.27733856 382.25762062 117.10968018 382.70774841 C115.48485923 383.33567612 113.86075381 383.96545788 112.23730469 384.59692383 C109.80422409 385.54145011 107.36718726 386.47515205 104.9296875 387.40820312 C86.85812104 394.32667353 86.85812104 394.32667353 70.5 404.5 C69.5821875 405.1909375 68.664375 405.881875 67.71875 406.59375 C64.24315089 409.55895737 64.24315089 409.55895737 59 416 C104.54 416 150.08 416 197 416 C189.56348163 407.32406191 181.85771552 401.1795876 171.703125 396.15234375 C171.01588348 395.81086304 170.32864197 395.46938232 169.62057495 395.11755371 C162.37463476 391.58882257 154.92091421 388.66339689 147.37646484 385.84228516 C145.07417406 384.98098574 142.77713089 384.10665479 140.48046875 383.23046875 C139.01069579 382.67374171 137.54065421 382.1177232 136.0703125 381.5625 C135.38711945 381.3032373 134.70392639 381.04397461 134.00003052 380.77685547 C128.00633734 378.5425014 125.23817179 379.56137895 119.421875 381.81640625 Z M19 409 C20 411 20 411 20 411 Z M16 414 C17 416 17 416 17 416 Z M12 421 C13 423 13 423 13 423 Z M42.71408081 435.56072998 C41.77193301 437.56669184 41.77193301 437.56669184 41 440 C40.01 442.64 39.02 445.28 38 448 C97.4 448 156.8 448 218 448 C213.97948718 436.96410256 213.97948718 436.96410256 210 432 C206.98022612 431.3829062 206.98022612 431.3829062 203.44680786 431.46514893 C202.77806983 431.4560867 202.1093318 431.44702447 201.42032897 431.43768764 C199.17463409 431.41232273 196.92990449 431.41564465 194.68408203 431.41894531 C193.07599638 431.40697935 191.46792224 431.39336931 189.85986328 431.37823486 C185.48788259 431.34285184 181.11621488 431.33352154 176.74410486 431.33097172 C173.09593 431.32717632 169.44782829 431.31246425 165.79968154 431.29828334 C157.19307692 431.26569611 148.58663969 431.25594715 139.97998047 431.25878906 C131.09834935 431.26119237 122.21768995 431.21898614 113.33630478 431.15581441 C105.71410198 431.10352883 98.09221691 431.08205273 90.46983612 431.0846107 C85.91590549 431.08563124 81.36283805 431.074198 76.80908585 431.0318985 C72.52567891 430.99319767 68.24396114 430.99283497 63.960495 431.02196503 C62.38871166 431.02615196 60.81682354 431.01667395 59.24522018 430.99252319 C49.80566815 430.41170931 49.80566815 430.41170931 42.71408081 435.56072998 Z " fill="#77A0D3" transform="translate(240,16)"/>
<path d="M0 0 C1.06077255 -0.00671722 2.1215451 -0.01343445 3.21446228 -0.02035522 C6.72008961 -0.03934785 10.2255256 -0.04326016 13.73120117 -0.04541016 C16.17111795 -0.05183742 18.61103395 -0.05856573 21.0509491 -0.06558228 C26.1661457 -0.07755838 31.28127474 -0.08126277 36.39648438 -0.08007812 C42.94350949 -0.07987497 49.49010035 -0.10717221 56.03702259 -0.14162254 C61.07714315 -0.16388623 66.11715914 -0.16791581 71.15732384 -0.16685867 C73.5705992 -0.16921561 75.9838774 -0.17804428 78.39710426 -0.19352341 C81.77676205 -0.21317076 85.1554826 -0.2073493 88.53515625 -0.1953125 C89.52712006 -0.20655151 90.51908386 -0.21779053 91.54110718 -0.22937012 C98.82624198 -0.16360776 104.17378339 1.40933061 109.70385742 6.25537109 C110.24268555 6.90634766 110.78151367 7.55732422 111.33666992 8.22802734 C111.8909668 8.87642578 112.44526367 9.52482422 113.01635742 10.19287109 C117.49579089 16.69410291 117.13630721 23.66193651 116.46166992 31.29052734 C114.75605489 38.04821729 109.95797122 42.30626074 104.46166992 46.29052734 C100.41171444 48.56245359 97.04696867 48.33868101 92.46166992 48.29052734 C92.54645229 57.09717738 92.64147848 65.90364247 92.74919701 74.710042 C92.79891393 78.80023187 92.84524379 82.89039893 92.88354492 86.98071289 C92.9207115 90.93604134 92.9671514 94.89116672 93.01973343 98.8463192 C93.03811228 100.34716884 93.05327951 101.84806174 93.06501389 103.34897804 C92.91717656 122.15774629 92.91717656 122.15774629 101.33666992 138.31396484 C106.07411191 142.72993756 111.22878145 146.1372536 116.71948242 149.53662109 C129.75700954 157.87543829 143.41081884 168.97583014 147.46166992 184.29052734 C152.48442163 198.13409917 158.51023242 211.26763693 167.89526367 222.72802734 C169.83363867 225.89903482 170.02136606 228.63335865 170.46166992 232.29052734 C169.88252838 232.2986142 169.30338684 232.30670105 168.70669556 232.31503296 C162.63864456 232.40158461 156.5709014 232.50110554 150.50317383 232.60791016 C148.2434611 232.64601879 145.98369146 232.6809021 143.72387695 232.71240234 C140.46178951 232.75844857 137.20008788 232.81637548 133.93823242 232.87646484 C132.93990387 232.88801605 131.94157532 232.89956726 130.91299438 232.91146851 C116.47449317 233.2102358 104.74136544 237.06264164 92.58666992 244.72802734 C76.35699186 254.95978091 58.82137837 259.2161861 39.68823242 255.57177734 C31.45458674 253.14666555 24.07779277 249.38151654 16.67260742 245.11083984 C-1.69272709 234.5430165 -19.600931 230.05050382 -40.96801758 233.95068359 C-53.22039595 237.30034629 -63.87731294 244.59561197 -74.53833008 251.29052734 C-75.31821289 251.76876953 -76.0980957 252.24701172 -76.90161133 252.73974609 C-77.97475586 253.39910156 -77.97475586 253.39910156 -79.06958008 254.07177734 C-79.69413086 254.45398438 -80.31868164 254.83619141 -80.9621582 255.22998047 C-82.70555181 256.32980222 -82.70555181 256.32980222 -84.53833008 258.29052734 C-84.0826573 239.42567431 -81.16084545 221.63590675 -73.53833008 204.29052734 C-73.11342285 203.30922852 -73.11342285 203.30922852 -72.67993164 202.30810547 C-62.63717166 179.55931215 -45.49103281 160.53395706 -24.53833008 147.29052734 C-15.69659037 141.49005178 -8.09421036 136.04728968 -5.53833008 125.29052734 C-4.24659549 117.3751262 -4.31248434 109.41462551 -4.22192383 101.41552734 C-4.20132054 99.87995894 -4.18032326 98.34439578 -4.15895081 96.80883789 C-4.10407823 92.79107947 -4.05451726 88.77327287 -4.00610352 84.75543213 C-3.95563227 80.64599379 -3.90008073 76.53662438 -3.8449707 72.42724609 C-3.73781577 64.38173166 -3.63627831 56.33615911 -3.53833008 48.29052734 C-4.64821289 48.30277344 -5.7580957 48.31501953 -6.90161133 48.32763672 C-12.61331435 48.26935403 -16.38588092 46.31214136 -20.53051758 42.41943359 C-26.86001419 35.4727454 -28.01901386 30.1027532 -27.84301758 20.73583984 C-27.14772805 12.87371979 -23.49078989 8.74094031 -17.63598633 3.73583984 C-11.96442103 -0.17194258 -6.66978817 -0.0060572 0 0 Z " fill="#F1F1F1" transform="translate(99.538330078125,111.70947265625)"/>
<path d="M0 0 C10.95433838 6.14953892 20.65487559 10.39987458 33.375 10.25 C34.63497803 10.23876099 34.63497803 10.23876099 35.92041016 10.22729492 C41.81986006 10.12486994 47.33821181 9.77165227 53 8 C53.96421875 7.70480469 54.9284375 7.40960938 55.921875 7.10546875 C63.33373539 4.54747303 69.51791006 0.91384133 76.03955078 -3.32592773 C88.25774438 -11.14846177 99.93677203 -13.16161903 114.24609375 -13.1328125 C115.8236721 -13.13424759 115.8236721 -13.13424759 117.43312073 -13.13571167 C119.64087993 -13.13638877 121.84864117 -13.13456743 124.05639648 -13.13037109 C127.45105376 -13.12497847 130.84558098 -13.13035117 134.24023438 -13.13671875 C136.38802113 -13.13605862 138.5358078 -13.13477882 140.68359375 -13.1328125 C141.70327744 -13.13483673 142.72296112 -13.13686096 143.77354431 -13.13894653 C145.17619286 -13.13421829 145.17619286 -13.13421829 146.60717773 -13.12939453 C147.84672462 -13.12820114 147.84672462 -13.12820114 149.11131287 -13.12698364 C151 -13 151 -13 152 -12 C157.0564782 16.86678706 152.60597845 49.93585279 137 75 C136.34 75 135.68 75 135 75 C134.75507813 76.03253906 134.51015625 77.06507813 134.2578125 78.12890625 C128.62675077 97.64175929 103.87621414 114.82312829 87.0703125 124.23828125 C56.53483774 140.64376323 20.75663434 144.35343507 -12.47265625 134.47265625 C-45.6183379 123.96408966 -72.7993981 101.82797679 -89.29833984 71.09936523 C-97.70952445 54.72448562 -102.76666222 36.76895051 -103.75 18.375 C-103.82734375 17.10398437 -103.9046875 15.83296875 -103.984375 14.5234375 C-102.46359338 9.08000487 -98.73691818 7.67444908 -94 5 C-92.28739936 3.92005264 -90.57780745 2.83532082 -88.87109375 1.74609375 C-58.30505027 -17.07775796 -31.21044218 -17.69835167 0 0 Z " fill="#559A2D" transform="translate(119,357)"/>
<path d="M0 0 C1.06077255 -0.00671722 2.1215451 -0.01343445 3.21446228 -0.02035522 C6.72008961 -0.03934785 10.2255256 -0.04326016 13.73120117 -0.04541016 C16.17111795 -0.05183742 18.61103395 -0.05856573 21.0509491 -0.06558228 C26.1661457 -0.07755838 31.28127474 -0.08126277 36.39648438 -0.08007812 C42.94350949 -0.07987497 49.49010035 -0.10717221 56.03702259 -0.14162254 C61.07714315 -0.16388623 66.11715914 -0.16791581 71.15732384 -0.16685867 C73.5705992 -0.16921561 75.9838774 -0.17804428 78.39710426 -0.19352341 C81.77676205 -0.21317076 85.1554826 -0.2073493 88.53515625 -0.1953125 C89.52712006 -0.20655151 90.51908386 -0.21779053 91.54110718 -0.22937012 C98.82624198 -0.16360776 104.17378339 1.40933061 109.70385742 6.25537109 C110.24268555 6.90634766 110.78151367 7.55732422 111.33666992 8.22802734 C111.8909668 8.87642578 112.44526367 9.52482422 113.01635742 10.19287109 C117.49579089 16.69410291 117.13630721 23.66193651 116.46166992 31.29052734 C114.7808141 37.95012068 109.9978867 42.47600182 104.46166992 46.29052734 C99.51285216 48.98056911 94.40358269 48.5860316 88.92333984 48.58105469 C87.86256729 48.58777191 86.80179474 48.59448914 85.70887756 48.60140991 C82.20325023 48.62040254 78.69781425 48.62431485 75.19213867 48.62646484 C72.7522219 48.63289211 70.3123059 48.63962042 67.87239075 48.64663696 C62.75719415 48.65861307 57.6420651 48.66231746 52.52685547 48.66113281 C45.97983035 48.66092966 39.43323949 48.6882269 32.88631725 48.72267723 C27.84619669 48.74494092 22.8061807 48.7489705 17.76601601 48.74791336 C15.35274065 48.7502703 12.93946245 48.75909897 10.52623558 48.77457809 C7.14657779 48.79422544 3.76785724 48.78840398 0.38818359 48.77636719 C-1.09976212 48.79322571 -1.09976212 48.79322571 -2.61776733 48.8104248 C-9.90290213 48.74466245 -15.25044355 47.17172408 -20.78051758 42.32568359 C-21.3193457 41.67470703 -21.85817383 41.02373047 -22.41333008 40.35302734 C-22.96762695 39.70462891 -23.52192383 39.05623047 -24.09301758 38.38818359 C-28.57245105 31.88695177 -28.21296736 24.91911818 -27.53833008 17.29052734 C-25.85747425 10.63093401 -21.07454686 6.10505287 -15.53833008 2.29052734 C-10.58951231 -0.39951442 -5.48024285 -0.00497691 0 0 Z " fill="#C7CDED" transform="translate(99.538330078125,111.70947265625)"/>
<path d="M0 0 C10.56 0 21.12 0 32 0 C32.04898438 4.85332031 32.09796875 9.70664063 32.1484375 14.70703125 C32.18386776 17.80145179 32.21985271 20.89584635 32.2578125 23.99023438 C32.31786948 28.8901781 32.37599115 33.79008593 32.421875 38.69018555 C32.45904158 42.645514 32.50548148 46.60063938 32.55806351 50.55579185 C32.57644236 52.0566415 32.59160959 53.5575344 32.60334396 55.0584507 C32.45550664 73.86721895 32.45550664 73.86721895 40.875 90.0234375 C45.61244199 94.43941021 50.76711153 97.84672625 56.2578125 101.24609375 C69.29533962 109.58491095 82.94914892 120.68530279 87 136 C92.0227517 149.84357183 98.0485625 162.97710959 107.43359375 174.4375 C109 177 109 177 110 184 C99.44 184 88.88 184 78 184 C76.88625 180.266875 75.7725 176.53375 74.625 172.6875 C68.12961363 151.87750114 57.97167534 134.84932527 43 119 C42.31421875 118.24976563 41.6284375 117.49953125 40.921875 116.7265625 C33.35480738 108.73910223 24.32729464 102.71894739 15.0625 96.875 C7.56675479 91.9197122 2.62574576 85.4860257 0.43678284 76.75300598 C-0.10339902 73.34828456 -0.11939973 70.08763895 -0.11352539 66.6394043 C-0.11367142 65.91690994 -0.11381744 65.19441559 -0.1139679 64.45002747 C-0.11327422 62.07472678 -0.10550745 59.69950565 -0.09765625 57.32421875 C-0.09579013 55.67226708 -0.09436714 54.02031485 -0.09336853 52.36836243 C-0.08955861 48.02992208 -0.07974139 43.69151545 -0.06866455 39.35308838 C-0.0584176 34.92224585 -0.05386388 30.49139785 -0.04882812 26.06054688 C-0.03811771 17.37368075 -0.0205333 8.68684846 0 0 Z " fill="#E1E6F5" transform="translate(160,160)"/>
<path d="M0 0 C63.36 0 126.72 0 192 0 C192 5.28 192 10.56 192 16 C128.64 16 65.28 16 0 16 C0 10.72 0 5.44 0 0 Z " fill="#D13F34" transform="translate(272,248)"/>
<path d="M0 0 C60.06 0 120.12 0 182 0 C185 10 185 10 185 16 C122.96 16 60.92 16 -3 16 C-2 6 -2 6 0 0 Z " fill="#D13F34" transform="translate(277,464)"/>
<path d="M0 0 C62.04 0 124.08 0 188 0 C187 10 187 10 184 16 C124.27 16 64.54 16 3 16 C0 6 0 6 0 0 Z " fill="#D13F34" transform="translate(274,32)"/>
<path d="M0 0 C1.28037045 0.00460896 2.56074091 0.00921793 3.87991047 0.01396656 C4.94956255 0.00755837 4.94956255 0.00755837 6.04082376 0.00102073 C8.43673832 -0.00723297 10.83091252 0.02031187 13.22666645 0.04761219 C14.94137245 0.04902216 16.65608147 0.04823168 18.37078571 0.04539967 C23.03187958 0.0439621 27.69233317 0.07340665 32.35327792 0.10826945 C37.22195539 0.13947648 42.09064671 0.14245922 46.95940876 0.14839649 C56.18176867 0.16395159 65.40383305 0.20500258 74.62606269 0.25514394 C85.12407699 0.3109856 95.62210524 0.33851087 106.12023103 0.36362112 C127.71813046 0.41591699 149.31576365 0.50389162 170.91343403 0.61523914 C173.93199793 6.24989175 175.28806313 10.11375557 176.91343403 16.61523914 C115.53343403 16.61523914 54.15343403 16.61523914 -9.08656597 16.61523914 C-4.81699978 0.96016312 -4.81699978 0.96016312 0 0 Z " fill="#F8D166" transform="translate(284.0865659713745,215.38476085662842)"/>
<path d="M0 0 C61.38 0 122.76 0 186 0 C183 10 183 10 180 16 C122.58 16 65.16 16 6 16 C1 4 1 4 0 0 Z " fill="#F8D166" transform="translate(275,280)"/>
<path d="M0 0 C1.18599792 -0.01575577 2.37199585 -0.03151154 3.59393311 -0.04774475 C4.90197906 -0.0546936 6.21002502 -0.06164246 7.55770874 -0.06880188 C8.94402827 -0.08296652 10.33034031 -0.0978822 11.71664429 -0.11349487 C16.27737178 -0.16078499 20.83811835 -0.18643369 25.39901733 -0.21064758 C26.96952745 -0.22005491 28.54003704 -0.22954934 30.11054611 -0.23913002 C36.64557964 -0.27763764 43.18060017 -0.31084681 49.71572304 -0.32950115 C59.07702985 -0.35628742 68.43695159 -0.41376513 77.79775679 -0.51526612 C84.38131213 -0.58420582 90.96450003 -0.6184745 97.54840791 -0.62706596 C101.47951783 -0.63306245 105.40920388 -0.65394394 109.33992386 -0.71162987 C113.04234579 -0.76514058 116.74245607 -0.77548801 120.44517517 -0.75348473 C122.44293087 -0.75243143 124.44055669 -0.79590021 126.43780518 -0.84092712 C135.04623048 -0.73170565 135.04623048 -0.73170565 138.95228195 2.19956017 C147.42245483 11.46750928 147.42245483 11.46750928 147.42245483 16.30107117 C93.30245483 16.30107117 39.18245483 16.30107117 -16.57754517 16.30107117 C-14.93512059 12.19500974 -13.74112123 9.93739808 -11.07754517 6.61357117 C-10.46910767 5.84657898 -9.86067017 5.07958679 -9.23379517 4.28935242 C-6.08032563 0.50370149 -4.91764221 0.0467842 0 0 Z " fill="#F8D166" transform="translate(302.5775451660156,431.6989288330078)"/>
<path d="M0 0 C54.12 0 108.24 0 164 0 C162.35757543 4.10606143 161.16357607 6.36367309 158.5 9.6875 C157.8915625 10.45449219 157.283125 11.22148438 156.65625 12.01171875 C153.36804932 15.9591106 153.36804932 15.9591106 150.55858421 16.27123547 C149.52366152 16.28108125 148.48873882 16.29092703 147.42245483 16.30107117 C145.64345795 16.32470482 145.64345795 16.32470482 143.82852173 16.34881592 C142.52047577 16.35576477 141.21242981 16.36271362 139.86474609 16.36987305 C138.47842656 16.38403769 137.09211453 16.39895337 135.70581055 16.41456604 C131.14508305 16.46185616 126.58433648 16.48750486 122.0234375 16.51171875 C120.45292738 16.52112608 118.88241779 16.53062051 117.31190872 16.54020119 C110.7768752 16.5787088 104.24185467 16.61191797 97.7067318 16.63057232 C88.34542499 16.65735858 78.98550324 16.7148363 69.62469804 16.81633729 C63.0411427 16.88527699 56.45795481 16.91954567 49.87404692 16.92813712 C45.942937 16.93413362 42.01325096 16.9550151 38.08253098 17.01270103 C34.38010904 17.06621174 30.67999877 17.07655917 26.97727966 17.05455589 C24.97952396 17.0535026 22.98189815 17.09697138 20.98464966 17.14199829 C12.37622435 17.03277681 12.37622435 17.03277681 8.47017288 14.101511 C0 4.83356189 0 4.83356189 0 0 Z " fill="#F8D166" transform="translate(286,64)"/>
<path d="M0 0 C50.82 0 101.64 0 154 0 C146.20155245 12.99741258 146.20155245 12.99741258 140 16 C131.51398988 18.03146954 122.53933496 17.61577318 113.8697114 17.54344368 C111.11143509 17.52703226 108.35381958 17.545444 105.59558856 17.5636878 C99.08019075 17.60639267 92.56657319 17.59359595 86.05126953 17.54394531 C79.36326953 17.49380973 72.67985078 17.53070594 65.99225819 17.61187029 C60.21912709 17.67921104 54.44739956 17.69524645 48.6739291 17.67052412 C45.23930812 17.65609581 41.80728185 17.65927771 38.37295914 17.71070862 C14.80293705 17.97359362 14.80293705 17.97359362 7.47530937 11.38002777 C4.20053323 7.90108773 1.53249299 4.59747897 0 0 Z " fill="#D13F34" transform="translate(291,312)"/>
<path d="M0 0 C2.75827631 0.01641142 5.51589182 -0.00200032 8.27412283 -0.02024412 C14.78952065 -0.06294899 21.30313821 -0.05015227 27.81844187 -0.00050163 C34.50644187 0.04963395 41.18986062 0.01273774 47.87745321 -0.06842661 C53.65058431 -0.13576736 59.42231184 -0.15180277 65.1957823 -0.12708044 C68.63040328 -0.11265213 72.06242955 -0.11583403 75.49675226 -0.16726494 C99.06677435 -0.43014994 99.06677435 -0.43014994 106.39440203 6.16341591 C109.66917817 9.64235595 112.33721841 12.94596471 113.8697114 17.54344368 C63.0497114 17.54344368 12.2297114 17.54344368 -40.1302886 17.54344368 C-29.52333989 -0.13480417 -19.92547495 -0.16623554 0 0 Z " fill="#D13F34" transform="translate(331.13028860092163,182.45655632019043)"/>
<path d="M0 0 C4.8846525 2.26787438 7.73212562 5.1153475 10 10 C10.75381535 15.5997712 10.77303575 20.33499991 8.375 25.5 C3.80134327 30.3143755 0.6912538 32.25156236 -6 32.5 C-12.6912538 32.25156236 -15.80134327 30.3143755 -20.375 25.5 C-22.77303575 20.33499991 -22.75381535 15.5997712 -22 10 C-17.52212837 0.3553534 -9.85292056 -1.32635469 0 0 Z " fill="#C7CCEC" transform="translate(118,48)"/>
<path d="M0 0 C4.8846525 2.26787438 7.73212562 5.1153475 10 10 C10.75381535 15.5997712 10.77303575 20.33499991 8.375 25.5 C3.80134327 30.3143755 0.6912538 32.25156236 -6 32.5 C-12.6912538 32.25156236 -15.80134327 30.3143755 -20.375 25.5 C-22.77303575 20.33499991 -22.75381535 15.5997712 -22 10 C-17.52212837 0.3553534 -9.85292056 -1.32635469 0 0 Z " fill="#C7CCEC" transform="translate(174,16)"/>
</svg>
